<?xml version="1.0" encoding="UTF-8"?>
<svg id="Layer_1" xmlns="http://www.w3.org/2000/svg" version="1.1" xmlns:xlink="http://www.w3.org/1999/xlink" viewBox="0 0 800 320">
  <!-- Generator: Adobe Illustrator 29.3.1, SVG Export Plug-In . SVG Version: 2.1.0 Build 151)  -->
  <defs>
    <style>
      .st0 {
        stroke: url(#linear-gradient3);
        stroke-width: 7px;
      }

      .st0, .st1, .st2, .st3 {
        fill: none;
        stroke-linecap: round;
        stroke-linejoin: round;
      }

      .st1 {
        stroke: url(#linear-gradient1);
        stroke-width: 5px;
      }

      .st2 {
        stroke: url(#linear-gradient2);
        stroke-width: 6px;
      }

      .st3 {
        stroke: url(#linear-gradient);
        stroke-width: 9px;
      }
    </style>
    <linearGradient id="linear-gradient" x1="-1223.8" y1="185.2" x2="-1222.8" y2="186.2" gradientTransform="translate(44222 -7258) scale(36 40)" gradientUnits="userSpaceOnUse">
      <stop offset="0" stop-color="#ff5a3d"/>
      <stop offset="1" stop-color="#7c3aed"/>
    </linearGradient>
    <linearGradient id="linear-gradient1" x1="-1146.1" y1="242.1" x2="-1145.3" y2="242.9" gradientTransform="translate(13962 -2770) scale(12)" gradientUnits="userSpaceOnUse">
      <stop offset="0" stop-color="#ff5a3d"/>
      <stop offset="1" stop-color="#7c3aed"/>
    </linearGradient>
    <linearGradient id="linear-gradient2" x1="-1184.5" y1="214.6" x2="-1183.7" y2="215.4" gradientTransform="translate(21534 -3736) scale(18)" gradientUnits="userSpaceOnUse">
      <stop offset="0" stop-color="#ff5a3d"/>
      <stop offset="1" stop-color="#7c3aed"/>
    </linearGradient>
    <linearGradient id="linear-gradient3" x1="-1203.7" y1="200.8" x2="-1202.9" y2="201.6" gradientTransform="translate(29106 -4702) scale(24)" gradientUnits="userSpaceOnUse">
      <stop offset="0" stop-color="#ff5a3d"/>
      <stop offset="1" stop-color="#7c3aed"/>
    </linearGradient>
  </defs>
  <path class="st3" d="M165.7,117.7v69.8h62.8"/>
  <path class="st1" d="M201.3,131.4c11.5,0,20.9,9.4,20.9,20.9"/>
  <path class="st2" d="M201.3,121c17.3,0,31.4,14.1,31.4,31.4"/>
  <path class="st0" d="M201.3,110.5c23.1,0,41.9,18.7,41.9,41.9"/>
  <g>
    <path d="M301.9,171.2h-21.8v-42h4.9v37.6h16.9v4.5Z"/>
    <path d="M329,171.2h-4.8v-4.7h-.1c-1,1.8-2.3,3.1-3.8,4s-3.3,1.3-5.3,1.3-5.1-.8-6.8-2.5-2.6-3.8-2.6-6.5.9-4.7,2.6-6.4c1.8-1.7,4.2-2.8,7.5-3.2l8.6-1.1v-.7c0-2.5-.6-4.3-1.8-5.4-1.2-1.1-2.7-1.6-4.7-1.6s-3.1.3-4.5.9-2.8,1.5-4.1,2.7l-2.8-2.9c1.7-1.6,3.5-2.8,5.4-3.6s4-1.1,6.3-1.1c3.6,0,6.4.9,8.2,2.8,1.8,1.9,2.8,4.7,2.8,8.4v19.5ZM324.2,159v-3l-7.2,1c-2.2.3-3.9.9-5,1.7-1.1.8-1.7,2.1-1.7,3.8s.5,3.2,1.6,4.1,2.3,1.4,3.8,1.4c2.6,0,4.7-.8,6.2-2.5s2.3-3.8,2.3-6.4Z"/>
    <path d="M353.1,145.3c-.4-.1-.7-.2-1-.2-.3,0-.7,0-1.1,0-2.4,0-4.4,1-5.8,3.1s-2.1,4.7-2.1,7.8v15.3h-4.8v-30h4.8v5.9h.1c.7-2.1,1.7-3.7,3.1-4.8,1.4-1.1,3-1.7,4.9-1.7s1.1,0,1.5,0,.8.1,1.1.3l-.8,4.3Z"/>
    <path d="M380.4,171.2h-4.8v-4.7h-.1c-1,1.8-2.3,3.1-3.8,4s-3.3,1.3-5.3,1.3-5.1-.8-6.8-2.5-2.6-3.8-2.6-6.5.9-4.7,2.6-6.4c1.8-1.7,4.2-2.8,7.5-3.2l8.6-1.1v-.7c0-2.5-.6-4.3-1.8-5.4-1.2-1.1-2.7-1.6-4.7-1.6s-3.1.3-4.5.9-2.8,1.5-4.1,2.7l-2.8-2.9c1.7-1.6,3.5-2.8,5.4-3.6s4-1.1,6.3-1.1c3.6,0,6.4.9,8.2,2.8,1.8,1.9,2.8,4.7,2.8,8.4v19.5ZM375.6,159v-3l-7.2,1c-2.2.3-3.9.9-5,1.7-1.1.8-1.7,2.1-1.7,3.8s.5,3.2,1.6,4.1,2.3,1.4,3.8,1.4c2.6,0,4.7-.8,6.2-2.5s2.3-3.8,2.3-6.4Z"/>
    <path d="M413.2,141.2l-12,30h-4.7l-11.4-30h5.3l7.6,21.8c.3.8.5,1.5.7,2.2s.3,1.3.4,1.9h.1c0-.8.2-1.5.4-2.2s.3-1.3.6-1.9l8-21.9h5.1Z"/>
    <path d="M442.5,157.3h-21.2c0,3.4,1,6,2.7,7.8s4.1,2.7,7.2,2.7,2.7-.2,4.1-.6,2.7-1,4-1.9l2.2,3.4c-1.7,1.1-3.4,1.9-5.1,2.4s-3.6.8-5.6.8c-4.5,0-8.1-1.3-10.6-4s-3.8-6.5-3.8-11.3c0-4.8,1.3-8.7,3.8-11.7,2.6-2.9,5.9-4.4,10-4.4s6.9,1.3,9.1,3.8,3.2,6.1,3.2,10.6v2.4ZM437.6,153.4c0-2.8-.7-4.9-2-6.5s-3.2-2.3-5.5-2.3-4.2.8-5.8,2.4c-1.6,1.6-2.6,3.7-2.9,6.4h16.2Z"/>
    <path d="M449.8,171.2v-44.4h4.8v44.4h-4.8Z"/>
    <path d="M502.7,133.7h-16.4v14.5h15.2v4.4h-15.2v18.6h-4.9v-42h21.3v4.5Z"/>
    <path d="M534.2,157.3h-21.2c0,3.4,1,6,2.7,7.8s4.1,2.7,7.2,2.7,2.7-.2,4.1-.6,2.7-1,4-1.9l2.2,3.4c-1.7,1.1-3.4,1.9-5.1,2.4s-3.6.8-5.6.8c-4.5,0-8.1-1.3-10.6-4s-3.8-6.5-3.8-11.3c0-4.8,1.3-8.7,3.8-11.7,2.6-2.9,5.9-4.4,10-4.4s6.9,1.3,9.1,3.8,3.2,6.1,3.2,10.6v2.4ZM529.2,153.4c0-2.8-.7-4.9-2-6.5s-3.2-2.3-5.5-2.3-4.2.8-5.8,2.4c-1.6,1.6-2.6,3.7-2.9,6.4h16.2Z"/>
    <path d="M565.5,157.3h-21.2c0,3.4,1,6,2.7,7.8s4.1,2.7,7.2,2.7,2.7-.2,4.1-.6,2.7-1,4-1.9l2.2,3.4c-1.7,1.1-3.4,1.9-5.1,2.4s-3.6.8-5.6.8c-4.5,0-8.1-1.3-10.6-4s-3.8-6.5-3.8-11.3c0-4.8,1.3-8.7,3.8-11.7,2.6-2.9,5.9-4.4,10-4.4s6.9,1.3,9.1,3.8,3.2,6.1,3.2,10.6v2.4ZM560.6,153.4c0-2.8-.7-4.9-2-6.5s-3.2-2.3-5.5-2.3-4.2.8-5.8,2.4c-1.6,1.6-2.6,3.7-2.9,6.4h16.2Z"/>
    <path d="M593.5,166.1c-1.1,1.9-2.5,3.4-4.2,4.4s-3.7,1.5-6.1,1.5c-3.8,0-6.8-1.3-9-4s-3.4-6.3-3.4-11,1.2-8.9,3.8-11.9,5.8-4.5,10-4.5,3.9.4,5.3,1.2c1.5.8,2.7,2,3.6,3.6h.1v-18.6h4.8v44.4h-4.8v-5.1h-.1ZM575.7,156.7c0,3.5.8,6.2,2.4,8.2s3.8,3,6.5,3,4.9-1,6.5-2.9,2.5-4.4,2.5-7.3v-4.4c0-2.4-.8-4.5-2.4-6.2-1.6-1.7-3.6-2.5-6.1-2.5s-5.2,1.1-6.9,3.2c-1.7,2.1-2.5,5.1-2.5,8.9Z"/>
    <path d="M605.3,169l2.3-3.7c1.3.9,2.6,1.5,3.8,1.9s2.6.7,4,.7c2.1,0,3.6-.4,4.7-1.1s1.6-1.9,1.6-3.4-.5-2.3-1.4-3.1-2.4-1.5-4.4-2c-3.8-1-6.3-2.2-7.7-3.6-1.4-1.5-2.1-3.2-2.1-5.4s.9-4.5,2.8-6.2c1.9-1.7,4.4-2.5,7.8-2.5s3.1.2,4.6.6,2.9,1.1,4.4,2.1l-2.1,3.6c-1.4-.9-2.6-1.5-3.7-1.8-1.1-.3-2.2-.5-3.3-.5-1.9,0-3.4.4-4.4,1.1-1,.7-1.5,1.7-1.5,3.1s.5,2.4,1.6,3c1,.7,2.7,1.3,5.1,1.9,3,.8,5.3,2,6.8,3.4,1.5,1.5,2.3,3.4,2.3,5.8s-1,5-2.9,6.6-4.7,2.4-8.1,2.4-3.6-.3-5.3-.8-3.3-1.2-4.7-2.2Z"/>
  </g>
</svg>